<?xml  version="1.0" encoding="UTF-8"?>
<!DOCTYPE svg PUBLIC "-//W3C//DTD SVG 1.0//EN" "http://www.w3.org/TR/2001/REC-SVG-20010904/DTD/svg10.dtd" >
<svg xmlns="http://www.w3.org/2000/svg" >
<metadata>
<version>1.0</version>
<id><![CDATA[Proxima N W01 At X Cd Bold]]></id>
<vendor>Monotype Imaging Inc.</vendor>
<credits>
<name>Fonts.com WebFonts</name>
<URL>http://webfonts.fonts.com</URL>
<role>Home of the Web fonts</role>
</credits>
<license>
<URL>http://webfonts.fonts.com/Legal</URL>
</license>
<copyright><![CDATA[Copyright (c) Mark Simonson, 2005. All rights reserved.]]></copyright>
<trademark><![CDATA[Proxima Nova is a trademark of Mark Simonson.]]></trademark>
<licensee>
<name></name>
</licensee>
</metadata>
<defs >
<font horiz-adv-x="388" id="c438d60b-ef5a-4dfb-ac7c-af845408fe11">
<font-face font-family="" panose-1="2 0 5 6 3 0 0 2 0 4" ascent="741" descent="-259" units-per-em="1000" alphabetic="0">
</font-face>
<missing-glyph horiz-adv-x="0" />

<glyph unicode="&#xA;" />
<glyph unicode="&#xD;" horiz-adv-x="0" />
<glyph unicode=" " horiz-adv-x="161" />
<glyph unicode="!" horiz-adv-x="249" d="M75 209L55 667H193L174 209H75ZM124 -11Q94 -11 72 11T50 63Q50 93 72 115T124 137Q155 137 176 115T198 63Q198 33 177 11T124 -11Z"  />
<glyph unicode="&quot;" horiz-adv-x="389" d="M84 386Q73 446 65 494Q62 515 59 535T53 571T49 600T47 615Q47 641 65 659T109 677Q135 677 153 659T171 615Q171 612 170 600T165 572T159 535T152 494Q144 446 134 386H84ZM255 386Q244 446 236 494Q233 515 230 535T224 571T220 600T218 615Q218 641 236 659T280 677Q306 677 324 659T342 615Q342 612 341 600T336 572T330 535T323 494Q315 446 305 386H255Z"  />
<glyph unicode="#" horiz-adv-x="455" d="M180 0L222 173H159L119 0H34L75 173H15L32 246H92L132 421H72L88 493H149L189 667H274L234 493H296L336 667H420L380 493H439L424 421H363L322 246H385L368 173H305L265 0H180ZM278 421H216L177 246H238L278 421Z"  />
<glyph unicode="$" horiz-adv-x="389" d="M160 -11Q113 -8 77 8T12 54L66 153Q87 127 117 114T176 100Q206 100 224 120T243 173Q243 202 228 223T188 263T137 301T86 345T47 406T31 492Q31 523 39 551T64 604T105 645T160 671V768H245V676Q315 668 361 624L313 527Q275 566 221 566Q194 566 177 548T159 499Q159 473 174 453T214 415T265 376T316 330T355 267T371 181Q371 112 338 63T245 -3V-100H160V-11Z"  />
<glyph unicode="%" horiz-adv-x="587" d="M150 345Q120 345 97 357T56 392T30 445T21 510Q21 545 30 575T56 628T96 664T150 677Q180 677 204 664T245 629T271 576T280 510Q280 475 271 445T245 393T204 358T150 345ZM129 0L408 667H459L179 0H129ZM437 -12Q407 -12 383 0T342 35T316 88T307 153Q307 188 316 218T342 271T383 307T437 320Q467 320 490 307T531 272T557 219T566 153Q566 118 557 88T531 36T491 1T437 -12ZM150 416Q176 416 190 442T204 510Q204 554 190 580T150 606Q125 606 111 580T96 510Q96 468 110 442T150 416ZM437 59Q463 59 477 85T491 153Q491 197 477 223T437 249Q411 249 397 223T383 153Q383 111 397 85T437 59Z"  />
<glyph unicode="&amp;" horiz-adv-x="447" d="M331 0L304 42Q278 16 247 2T177 -12Q145 -12 118 0T70 36T39 94T27 173Q27 210 35 239T58 292T90 335T128 371Q111 410 102 446T92 511Q92 548 102 578T130 631T172 665T226 677Q253 677 276 666T316 636T344 591T354 535Q354 500 344 473T319 424T283 384T241 348Q250 330 259 313T276 281Q284 265 291 251T307 223Q317 253 324 283T338 338L428 296Q416 249 401 207T365 127Q384 98 404 68T450 0H331ZM201 78Q218 78 232 88T259 117Q245 140 233 162T209 206Q199 223 190 241T171 278Q157 258 148 235T139 180Q139 135 157 107T201 78ZM191 511Q191 494 195 475T206 434Q229 454 243 477T258 532Q258 564 249 579T226 595Q208 595 200 575T191 511Z"  />
<glyph unicode="&apos;" horiz-adv-x="218" d="M84 386Q73 446 65 494Q62 515 59 535T53 571T49 600T47 615Q47 641 65 659T109 677Q135 677 153 659T171 615Q171 612 170 600T165 572T159 535T152 494Q144 446 134 386H84Z"  />
<glyph unicode="(" horiz-adv-x="258" d="M155 -199Q101 -96 74 13T47 243Q47 364 74 473T155 685L237 649Q206 556 188 458T170 243Q170 127 188 29T237 -162L155 -199Z"  />
<glyph unicode=")" horiz-adv-x="258" d="M20 -162Q52 -70 69 28T87 243Q87 360 70 458T20 649L103 685Q157 582 184 473T211 243Q211 122 184 13T103 -199L20 -162Z"  />
<glyph unicode="*" horiz-adv-x="321" d="M131 373L136 484L43 424L14 474L112 525L14 575L43 626L136 566L131 677H189L184 566L277 626L307 575L208 525L307 474L277 424L184 484L189 373H131Z"  />
<glyph unicode="+" horiz-adv-x="383" d="M231 302V156H152V302H29V373H152V512H231V373H354V302H231Z"  />
<glyph unicode="&#x2c;" horiz-adv-x="251" d="M203 41Q203 -13 177 -58T107 -134L56 -93Q68 -86 80 -76T102 -53T120 -26T130 1Q128 0 123 -1T113 -2Q87 -2 69 16T51 64Q51 94 72 115T122 137Q154 137 178 112T203 41Z"  />
<glyph unicode="-" horiz-adv-x="241" d="M30 194V290H211V194H30Z"  />
<glyph unicode="." horiz-adv-x="248" d="M124 -11Q94 -11 73 11T51 63Q51 93 72 115T124 137Q155 137 176 115T198 63Q198 33 177 11T124 -11Z"  />
<glyph unicode="/" horiz-adv-x="227" d="M0 -20L147 687H227L80 -20H0Z"  />
<glyph unicode="0" horiz-adv-x="454" d="M227 -12Q174 -12 137 18T76 96T41 207T30 333Q30 397 41 459T75 569T136 647T227 677Q280 677 317 648T377 570T412 459T423 333Q423 269 413 207T379 97T318 18T227 -12ZM227 100Q249 100 262 117T283 166T292 240T295 333Q295 384 293 426T283 499T263 547T227 565Q205 565 192 548T171 500T162 427T159 333Q159 283 161 240T170 166T191 118T227 100Z"  />
<glyph unicode="1" horiz-adv-x="348" d="M170 0V505L78 408L5 484L187 667H296V0H170Z"  />
<glyph unicode="2" horiz-adv-x="441" d="M41 0V105Q95 173 133 222T198 308T240 370T264 415T275 451T278 484Q278 517 260 541T209 565Q145 565 104 492L23 566Q57 618 102 647T215 677Q258 677 293 664T353 625T391 565T405 486Q405 453 396 421T365 346T305 248T208 111H408V0H41Z"  />
<glyph unicode="3" horiz-adv-x="440" d="M214 -12Q147 -12 97 19T21 97L106 171Q123 139 148 120T209 100Q252 100 268 126T285 193Q285 220 278 237T258 265T232 280T204 284Q193 284 182 284T163 283V396Q169 395 181 395T199 395Q235 395 256 416T278 479Q278 565 208 565Q177 565 152 548T110 501L28 568Q60 622 109 649T215 677Q255 677 289 667T348 634T387 577T401 497Q401 471 394 446T372 400T339 365T295 344Q320 339 341 325T377 289T400 241T409 183Q409 139 396 104T357 42T296 2T214 -12Z"  />
<glyph unicode="4" horiz-adv-x="430" d="M239 0V146H15V258L218 667H365V257H415V146H365V0H239ZM239 520L118 257H239V520Z"  />
<glyph unicode="5" horiz-adv-x="445" d="M218 -12Q150 -12 105 15T28 97L110 171Q128 137 152 119T210 100Q229 100 243 109T268 133T283 169T288 211Q288 266 270 294T219 322Q193 322 175 309T138 266L44 291V667H385V556H170V377Q185 401 210 416T266 431Q333 431 375 376T417 214Q417 166 404 125T364 53T301 6T218 -12Z"  />
<glyph unicode="6" horiz-adv-x="442" d="M234 -12Q178 -12 139 16T76 91T41 201T30 332Q30 406 44 469T86 578T156 651T254 677Q299 677 337 657T398 602L333 512Q319 538 301 551T257 565Q232 565 214 548T183 501T164 434T158 356V347Q172 382 201 406T270 430Q300 430 326 416T373 375T404 308T416 214Q416 166 403 125T366 53T309 6T234 -12ZM227 100Q243 100 255 109T274 134T284 169T288 209Q288 241 283 263T269 298T249 316T226 322Q200 322 184 299T158 249Q159 226 162 200T172 151T193 115T227 100Z"  />
<glyph unicode="7" horiz-adv-x="390" d="M72 0L234 556H17V667H373V580L206 0H72Z"  />
<glyph unicode="8" horiz-adv-x="441" d="M220 -12Q125 -12 77 35T28 167Q28 197 37 225T63 277T99 317T140 344Q120 352 102 366T69 402T45 449T36 506Q36 550 51 582T92 636T151 667T220 677Q256 677 289 667T348 636T389 583T405 506Q405 475 396 449T373 402T339 367T300 344Q321 335 341 318T378 277T403 226T413 168Q413 83 364 36T220 -12ZM220 384Q224 386 234 392T254 411T272 440T280 482Q280 521 265 543T220 565Q191 565 176 543T160 482Q160 458 168 441T186 411T206 393T220 384ZM220 100Q247 100 267 121T287 186Q287 213 279 233T259 268T236 290T220 299Q215 298 204 290T182 268T163 234T154 186Q154 142 173 121T220 100Z"  />
<glyph unicode="9" horiz-adv-x="442" d="M188 -11Q143 -11 105 9T43 64L109 154Q123 128 141 115T185 101Q208 101 226 117T257 162T277 229T284 309V319Q270 284 241 260T172 236Q142 236 116 250T69 291T38 358T26 452Q26 500 39 541T75 613T132 660T207 678Q264 678 303 650T366 575T400 465T411 334Q411 260 397 197T355 88T285 15T188 -11ZM215 344Q242 344 258 367T284 417Q283 440 281 466T271 515T250 551T216 566Q199 566 187 557T168 532T157 497T154 457Q154 425 159 403T173 368T193 350T215 344Z"  />
<glyph unicode=":" horiz-adv-x="247" d="M124 343Q94 343 73 365T51 416Q51 446 72 468T124 490Q155 490 176 468T198 416Q198 387 177 365T124 343ZM124 -11Q94 -11 73 11T51 63Q51 93 72 115T124 137Q155 137 176 115T198 63Q198 33 177 11T124 -11Z"  />
<glyph unicode=";" horiz-adv-x="249" d="M124 343Q94 343 73 365T51 417Q51 447 72 468T124 490Q155 490 176 469T198 417Q198 387 177 365T124 343ZM203 44Q203 -10 177 -55T107 -131L56 -90Q80 -76 102 -49T130 4Q128 3 123 2T113 1Q87 1 69 20T51 68Q51 97 72 118T122 140Q154 140 178 115T203 44Z"  />
<glyph unicode="&lt;" horiz-adv-x="383" d="M29 294V375L354 514V429L113 334L354 241V156L29 294Z"  />
<glyph unicode="=" horiz-adv-x="383" d="M29 393V465H354V393H29ZM29 203V275H354V203H29Z"  />
<glyph unicode="&gt;" horiz-adv-x="383" d="M29 156V241L270 334L29 429V514L354 375V294L29 156Z"  />
<glyph unicode="?" horiz-adv-x="325" d="M119 199Q94 233 94 287Q94 328 108 356T140 407T171 453T186 508Q186 531 172 550T132 569Q101 569 77 539L25 617Q82 677 162 677Q196 677 223 666T270 636T300 591T310 534Q310 489 293 457T254 396T216 341T198 280Q198 268 203 256T214 235L119 199ZM165 -11Q135 -11 113 11T91 63Q91 93 113 115T165 137Q195 137 217 115T239 63Q239 33 217 11T165 -11Z"  />
<glyph unicode="@" horiz-adv-x="635" d="M271 -70Q214 -70 170 -50T96 7T51 97T35 215Q35 297 62 373T137 508T248 602T384 638Q431 638 471 622T539 574T584 499T600 397Q600 333 587 277T550 178T497 110T432 85Q398 85 375 103T347 152L346 160Q327 131 301 108T233 85Q216 85 199 91T169 112T147 151T138 213Q138 264 151 314T190 406T250 472T328 498Q358 498 375 480T401 433L411 484H512L458 230Q457 226 456 218T455 206Q455 183 461 173T483 162Q493 162 506 178T531 224T551 297T559 396Q559 496 511 548T382 601Q318 601 262 568T165 480T99 357T75 217Q75 163 87 118T124 39T186 -14T275 -33Q320 -33 354 -19T423 22L443 -7Q402 -37 361 -53T271 -70ZM284 166Q310 166 327 186T356 228L385 366Q381 385 372 401T343 418Q319 418 300 399T269 352T250 290T243 230Q243 201 252 184T284 166Z"  />
<glyph unicode="A" horiz-adv-x="424" d="M294 0L274 123H149L129 0H0L139 667H284L423 0H294ZM212 526L164 234H259L212 526Z"  />
<glyph unicode="B" horiz-adv-x="452" d="M52 0V667H253Q295 667 325 654T374 617T403 562T413 497Q413 434 386 396T315 344Q339 340 358 326T392 290T414 240T422 181Q422 142 413 109T385 52T334 14T260 0H52ZM220 395Q255 395 269 417T284 475Q284 511 270 533T220 556H178V395H220ZM224 111Q293 111 293 198Q293 235 276 259T224 284H178V111H224Z"  />
<glyph unicode="C" horiz-adv-x="429" d="M239 -12Q184 -12 145 14T80 86T42 195T30 333Q30 408 42 471T79 580T144 652T239 678Q280 678 308 664T356 626T387 576T407 521L306 484Q296 522 282 544T239 566Q217 566 202 549T177 501T163 427T159 333Q159 282 163 239T176 166T201 118T239 100Q271 100 286 127T308 197L408 160Q401 131 390 101T359 46T310 4T239 -12Z"  />
<glyph unicode="D" horiz-adv-x="475" d="M52 0V667H218Q278 667 321 642T391 571T432 465T445 333Q445 261 433 200T393 95T322 25T219 0H52ZM219 111Q268 111 292 168T316 333Q316 556 219 556H178V111H219Z"  />
<glyph unicode="E" horiz-adv-x="379" d="M52 0V667H344V556H178V395H337V284H178V111H344V0H52Z"  />
<glyph unicode="F" horiz-adv-x="375" d="M52 0V667H344V556H178V395H337V284H178V0H52Z"  />
<glyph unicode="G" horiz-adv-x="453" d="M236 -12Q183 -12 145 13T81 84T43 193T30 333Q30 410 42 473T81 582T146 653T239 678Q274 678 301 666T350 632T385 582T407 521L306 484Q298 519 284 542T239 566Q201 566 180 510T159 333Q159 213 180 157T239 100Q258 100 271 113T293 147T306 196T310 252H225V363H429Q429 273 419 204T387 86T327 13T236 -12Z"  />
<glyph unicode="H" horiz-adv-x="484" d="M306 0V288H178V0H52V667H178V398H306V667H432V0H306Z"  />
<glyph unicode="I" horiz-adv-x="230" d="M52 0V667H178V0H52Z"  />
<glyph unicode="J" horiz-adv-x="348" d="M117 -12Q88 -12 60 -4T8 24L42 127Q55 113 71 107T102 100Q134 100 152 117T171 173V667H297V167Q297 120 284 86T247 31T190 -1T117 -12Z"  />
<glyph unicode="K" horiz-adv-x="471" d="M325 0L219 254L178 170V0H52V667H178V359L317 667H456L293 353L468 0H325Z"  />
<glyph unicode="L" horiz-adv-x="365" d="M52 0V667H178V111H344V0H52Z"  />
<glyph unicode="M" horiz-adv-x="616" d="M440 0V422L329 0H287L178 422V0H52V667H212L308 298L407 667H564V0H440Z"  />
<glyph unicode="N" horiz-adv-x="484" d="M314 0L178 382V0H52V667H178L306 298V667H432V0H314Z"  />
<glyph unicode="O" horiz-adv-x="478" d="M239 -12Q184 -12 145 14T80 87T42 196T30 333Q30 406 42 469T79 579T144 651T239 678Q294 678 333 652T397 579T435 470T447 333Q447 259 435 196T398 87T333 15T239 -12ZM239 100Q261 100 276 118T300 167T314 241T318 333Q318 383 314 425T301 499T276 548T239 566Q216 566 201 549T177 500T163 426T159 333Q159 284 163 242T176 168T201 118T239 100Z"  />
<glyph unicode="P" horiz-adv-x="441" d="M52 0V667H232Q280 667 315 650T374 604T409 536T420 456Q420 414 409 376T375 309T316 262T232 245H178V0H52ZM218 356Q254 356 272 383T291 456Q291 501 273 528T218 556H178V356H218Z"  />
<glyph unicode="Q" horiz-adv-x="478" d="M239 -12Q184 -12 145 14T80 87T42 196T30 333Q30 406 42 469T79 579T144 651T239 678Q294 678 333 652T397 579T435 470T447 333Q447 236 426 159T360 36L375 -1L287 -36L276 -8Q260 -12 239 -12ZM277 253L304 182Q312 212 315 250T318 333Q318 383 314 425T301 499T276 548T239 566Q216 566 201 549T177 500T163 426T159 333Q159 285 163 244T175 171T198 121T234 100L189 219L277 253Z"  />
<glyph unicode="R" horiz-adv-x="460" d="M291 0L219 245H178V0H52V667H238Q278 667 311 652T369 610T406 544T420 460Q420 418 412 387T392 333T364 297T334 275L426 0H291ZM218 356Q254 356 272 383T291 456Q291 501 273 528T218 556H178V356H218Z"  />
<glyph unicode="S" horiz-adv-x="396" d="M184 -12Q129 -12 87 5T12 54L66 153Q87 127 117 114T176 100Q206 100 224 120T243 173Q243 202 228 223T188 263T137 301T86 345T47 406T31 492Q31 529 43 563T79 622T137 663T216 678Q259 678 296 664T361 624L313 527Q275 566 221 566Q194 566 177 548T159 499Q159 473 174 453T214 415T265 376T316 330T355 267T371 181Q371 139 358 104T320 43T261 3T184 -12Z"  />
<glyph unicode="T" horiz-adv-x="364" d="M119 0V556H18V667H346V556H245V0H119Z"  />
<glyph unicode="U" horiz-adv-x="484" d="M242 -12Q205 -12 171 0T110 37T68 100T52 193V667H178V187Q178 138 195 119T242 99Q271 99 288 118T306 187V667H432V193Q432 139 416 101T374 37T314 0T242 -12Z"  />
<glyph unicode="V" horiz-adv-x="424" d="M139 0L0 667H129L212 162L294 667H423L284 0H139Z"  />
<glyph unicode="W" horiz-adv-x="616" d="M363 0L308 430L253 0H125L11 667H139L194 220L258 667H357L422 220L477 667H605L491 0H363Z"  />
<glyph unicode="X" horiz-adv-x="438" d="M301 0L219 230L137 0H-1L146 340L7 667H146L219 448L292 667H432L292 341L440 0H301Z"  />
<glyph unicode="Y" horiz-adv-x="430" d="M152 0V276L-4 667H130L215 398L301 667H434L278 276V0H152Z"  />
<glyph unicode="Z" horiz-adv-x="376" d="M29 0V107L198 556H29V667H339V565L168 111H346V0H29Z"  />
<glyph unicode="[" horiz-adv-x="205" d="M35 -190V678H187V602H118V-114H187V-190H35Z"  />
<glyph unicode="\" horiz-adv-x="227" d="M0 687H81L228 -20H147L0 687Z"  />
<glyph unicode="]" horiz-adv-x="205" d="M18 -190V-114H87V602H18V678H169V-190H18Z"  />
<glyph unicode="^" horiz-adv-x="337" d="M236 333L168 576L101 333H19L127 667H210L318 333H236Z"  />
<glyph unicode="_" horiz-adv-x="279" d="M-3 -116V-40H282V-116H-3Z"  />
<glyph unicode="`" horiz-adv-x="178" d="M106 556L0 700H98L178 556H106Z"  />
<glyph unicode="a" horiz-adv-x="423" d="M264 0V60Q248 24 222 6T170 -12Q99 -12 63 56T27 242Q27 299 36 345T63 425T107 476T170 495Q196 495 222 478T264 423V483H377V0H264ZM207 88Q225 88 240 105T264 146V337Q256 360 241 377T207 395Q188 395 176 383T157 351T146 302T143 242Q143 210 146 182T156 133T176 100T207 88Z"  />
<glyph unicode="b" horiz-adv-x="423" d="M158 146Q166 122 182 105T216 88Q235 88 247 100T266 133T277 182T280 242Q280 274 277 302T267 350T247 383T216 395Q198 395 182 378T158 337V146ZM46 0V667H158V423Q173 461 200 478T253 495Q289 495 315 477T360 425T387 346T396 242Q396 125 360 57T253 -12Q227 -12 201 6T158 60V0H46Z"  />
<glyph unicode="c" horiz-adv-x="344" d="M211 -12Q167 -12 133 7T76 60T40 140T27 242Q27 297 39 343T75 423T133 476T211 495Q251 495 281 482T328 452L291 364Q263 395 232 395Q209 395 193 383T165 350T149 301T143 242Q143 210 148 182T165 133T192 100T232 88Q264 88 291 119L328 31Q311 12 281 0T211 -12Z"  />
<glyph unicode="d" horiz-adv-x="423" d="M264 0V60Q248 24 222 6T170 -12Q99 -12 63 56T27 242Q27 299 36 345T63 425T107 476T170 495Q196 495 222 478T264 423V667H377V0H264ZM207 88Q225 88 240 105T264 146V337Q256 361 241 378T207 395Q188 395 176 383T157 351T146 302T143 242Q143 210 146 182T156 133T176 100T207 88Z"  />
<glyph unicode="e" horiz-adv-x="404" d="M219 -12Q172 -12 136 6T76 59T40 139T27 242Q27 294 38 340T72 421T129 475T208 495Q254 495 286 476T340 423T371 343T381 244V204H136Q137 150 159 115T231 80Q251 80 272 92T311 128L366 65Q337 27 299 8T219 -12ZM273 284Q273 304 270 325T260 363T239 392T205 403Q184 403 171 392T150 363T139 324T136 284H273Z"  />
<glyph unicode="f" horiz-adv-x="249" d="M61 0V385H17V483H61V533Q61 602 93 639T180 677Q202 677 218 674T249 664L230 573Q224 579 211 579Q194 579 184 568T174 533V483H235V385H174V0H61Z"  />
<glyph unicode="g" horiz-adv-x="423" d="M193 -196Q148 -196 112 -184T45 -143L83 -53Q103 -73 128 -85T182 -98Q218 -98 241 -73T264 9V77Q248 41 222 23T170 4Q98 4 63 68T27 249Q27 363 63 429T170 495Q196 495 222 478T264 423V483H377V9Q377 -51 362 -90T321 -153T262 -186T193 -196ZM207 104Q225 104 240 121T264 162V337Q256 362 241 378T207 395Q188 395 176 384T157 354T146 308T143 249Q143 217 146 191T156 145T176 115T207 104Z"  />
<glyph unicode="h" horiz-adv-x="420" d="M261 0V345Q261 395 224 395Q202 395 185 375T158 332V0H46V667H158V420Q165 435 177 448T205 472T238 489T273 495Q327 495 350 467T374 386V0H261Z"  />
<glyph unicode="i" horiz-adv-x="204" d="M102 540Q73 540 53 559T33 608Q33 637 53 657T102 677Q131 677 151 657T171 608Q171 579 151 560T102 540ZM46 0V483H158V0H46Z"  />
<glyph unicode="j" horiz-adv-x="204" d="M102 540Q73 540 53 559T33 608Q33 637 53 657T102 677Q131 677 151 657T171 608Q171 579 151 560T102 540ZM22 -196Q-17 -196 -38 -172L-12 -85Q-4 -98 13 -98Q28 -98 37 -86T46 -42V483H158V-42Q158 -120 127 -158T22 -196Z"  />
<glyph unicode="k" horiz-adv-x="403" d="M274 0L203 193L158 113V0H46V667H158V260L270 483H393L279 268L398 0H274Z"  />
<glyph unicode="l" horiz-adv-x="233" d="M155 -12Q96 -12 71 18T46 111V667H158V133Q158 110 164 99T185 88Q202 88 212 101L236 12Q222 1 202 -5T155 -12Z"  />
<glyph unicode="m" horiz-adv-x="636" d="M477 0V344Q477 371 468 383T439 395Q416 395 399 375T374 332V0H261V344Q261 395 224 395Q201 395 184 375T158 332V0H46V483H158V420Q165 433 177 446T204 471T237 488T273 495Q311 495 338 476T371 415Q378 430 390 444T418 470T452 488T488 495Q533 495 561 470T590 385V0H477Z"  />
<glyph unicode="n" horiz-adv-x="420" d="M261 0V344Q261 395 224 395Q202 395 185 375T158 332V0H46V483H158V420Q165 435 177 448T205 472T238 489T273 495Q327 495 350 466T374 385V0H261Z"  />
<glyph unicode="o" horiz-adv-x="417" d="M208 -12Q161 -12 127 9T70 65T38 146T27 242Q27 292 37 338T70 419T126 474T208 495Q256 495 290 475T346 419T379 338T390 242Q390 192 380 146T347 65T290 9T208 -12ZM208 88Q227 88 240 100T260 134T270 183T273 242Q273 273 270 300T260 349T240 382T208 395Q189 395 177 383T157 349T146 301T143 242Q143 211 146 183T156 134T176 101T208 88Z"  />
<glyph unicode="p" horiz-adv-x="423" d="M253 -12Q227 -12 200 5T158 60V-184H46V483H158V423Q175 459 201 477T253 495Q324 495 360 427T396 241Q396 184 387 138T360 58T316 7T253 -12ZM216 88Q235 88 247 100T266 132T277 181T280 241Q280 273 277 301T267 350T247 383T216 395Q198 395 182 379T158 339V146Q166 121 182 105T216 88Z"  />
<glyph unicode="q" horiz-adv-x="423" d="M207 88Q225 88 240 104T264 146V339Q256 363 241 379T207 395Q188 395 176 383T157 350T146 301T143 241Q143 209 146 181T156 133T176 100T207 88ZM170 -12Q134 -12 108 6T63 58T36 137T27 241Q27 358 63 426T170 495Q196 495 222 477T264 423V483H377V-184H264V60Q249 22 223 5T170 -12Z"  />
<glyph unicode="r" horiz-adv-x="281" d="M46 0V483H158V416Q173 450 204 472T267 495V384Q256 387 245 387Q220 387 197 369T158 325V0H46Z"  />
<glyph unicode="s" horiz-adv-x="345" d="M169 -12Q115 -12 76 5T13 51L59 129Q79 107 104 92T159 77Q186 77 202 91T219 129Q219 149 205 162T170 186T124 210T78 241T43 288T29 358Q29 386 39 410T68 454T116 484T183 495Q225 495 261 480T324 438L279 362Q265 379 240 392T186 406Q163 406 149 393T134 361Q134 343 148 331T184 307T230 283T277 251T312 203T327 132Q327 100 315 74T282 28T232 -1T169 -12Z"  />
<glyph unicode="t" horiz-adv-x="257" d="M171 -12Q111 -12 86 18T61 111V385H16V483H61V615H174V483H235V385H174V133Q174 110 180 99T201 88Q218 88 228 101L251 12Q238 1 218 -5T171 -12Z"  />
<glyph unicode="u" horiz-adv-x="420" d="M261 0V61Q254 46 242 33T215 10T182 -6T147 -12Q93 -12 70 16T46 97V483H158V138Q158 88 196 88Q218 88 235 107T261 149V483H374V0H261Z"  />
<glyph unicode="v" horiz-adv-x="381" d="M129 0L2 483H121L190 141L259 483H379L250 0H129Z"  />
<glyph unicode="w" horiz-adv-x="608" d="M373 0L304 329L234 0H116L5 483H122L184 153L247 483H354L424 153L485 483H603L492 0H373Z"  />
<glyph unicode="x" horiz-adv-x="372" d="M248 0L186 160L123 0H3L116 243L8 483H127L186 327L244 483H363L255 243L368 0H248Z"  />
<glyph unicode="y" horiz-adv-x="420" d="M196 -196Q148 -196 110 -183T47 -143L86 -53Q107 -76 133 -87T184 -98Q261 -98 261 9V77Q254 63 242 50T215 27T182 11T147 5Q93 5 70 33T46 113V483H158V154Q158 104 196 104Q218 104 235 123T261 166V483H374V9Q374 -88 330 -142T196 -196Z"  />
<glyph unicode="z" horiz-adv-x="335" d="M27 0V85L170 385H27V483H305V401L161 98H309V0H27Z"  />
<glyph unicode="{" horiz-adv-x="220" d="M174 -190Q151 -190 130 -182T93 -158T66 -120T56 -72V144Q56 172 43 191T4 211V277Q30 277 43 296T56 344V560Q56 586 66 607T92 645T130 669T174 678H203V602H174Q160 602 150 590T139 560V333Q139 301 129 278T93 244Q118 233 128 210T139 155V-72Q139 -90 149 -102T174 -114H203V-190H174Z"  />
<glyph unicode="|" horiz-adv-x="181" d="M52 -20V687H128V-20H52Z"  />
<glyph unicode="}" horiz-adv-x="220" d="M17 -114H45Q60 -114 70 -102T81 -72V155Q81 187 91 210T126 244Q101 255 91 278T81 333V560Q81 578 71 590T45 602H17V678H45Q68 678 89 670T126 645T153 608T163 560V344Q163 316 176 297T215 277V211Q189 211 176 192T163 144V-72Q163 -98 153 -120T127 -157T89 -181T45 -190H17V-114Z"  />
<glyph unicode="~" horiz-adv-x="416" d="M389 661Q387 624 383 581T367 501T331 440T269 415Q243 415 227 428T201 462T186 505T176 548T165 581T148 595Q137 595 131 586T120 555T112 499T105 414L26 421Q28 458 33 500T50 580T86 641T148 666Q174 666 190 653T216 619T231 576T241 532T252 499T269 485Q279 485 286 494T297 525T305 581T312 667L389 661Z"  />
<glyph unicode="&#xA0;" horiz-adv-x="161" />
<glyph unicode="&#xA1;" horiz-adv-x="249" d="M75 274H174L193 -184H56L75 274ZM51 420Q51 450 72 472T125 494Q155 494 177 472T199 420Q199 390 177 368T125 346Q94 346 73 368T51 420Z"  />
<glyph unicode="&#xA2;" horiz-adv-x="344" d="M155 -2Q93 19 60 84T27 242Q27 333 60 398T155 485V565H238V493Q268 489 291 478T328 452L291 364Q263 395 232 395Q209 395 193 383T165 350T149 301T143 242Q143 210 148 182T165 133T192 100T232 88Q264 88 291 119L328 31Q314 15 291 5T238 -10V-100H155V-2Z"  />
<glyph unicode="&#xA3;" horiz-adv-x="424" d="M30 349H77Q64 375 55 406T46 478Q46 520 61 556T103 620T163 662T235 677Q297 677 342 645T399 546L299 503Q291 535 279 554T241 574Q218 574 200 549T182 476Q182 432 192 404T214 349H286V276H233Q234 268 234 261T235 245Q235 229 231 211T220 176T202 143T180 117Q201 126 216 126Q232 126 244 122T266 113T287 104T312 100Q335 100 353 108T380 129L414 30Q400 13 369 1T301 -12Q275 -12 257 -6T225 8T198 22T166 29Q127 29 81 -7L45 79Q80 103 101 139T123 212Q123 229 120 245T111 276H30V349Z"  />
<glyph unicode="&#xA4;" horiz-adv-x="506" d="M253 222Q310 222 341 262T372 365Q372 395 364 421T341 467T304 498T253 509Q224 509 202 498T165 468T141 422T133 365Q133 334 141 308T164 263T202 233T253 222ZM19 168L88 239Q50 294 50 365Q50 436 88 489L19 560L64 603L131 534Q155 552 185 563T253 574Q289 574 320 563T375 534L442 603L487 560L418 489Q455 435 455 365Q455 330 445 298T417 240L487 168L442 125L374 194Q325 157 253 157Q181 157 132 194L64 125L19 168Z"  />
<glyph unicode="&#xA5;" horiz-adv-x="430" d="M152 0V117H25V188H152V276H25V347H123L-4 667H130L215 398L301 667H434L306 347H404V276H278V188H404V117H278V0H152Z"  />
<glyph unicode="&#xA6;" horiz-adv-x="181" d="M52 -20V296H128V-20H52ZM52 371V687H128V371H52Z"  />
<glyph unicode="&#xA7;" horiz-adv-x="347" d="M327 314Q327 279 310 246T256 193Q294 166 310 135T327 63Q327 33 315 7T282 -39T232 -70T169 -81Q68 -81 13 -18L59 57Q65 49 75 40T99 22T127 9T159 3Q189 3 204 20T219 61Q219 83 205 98T170 126T124 152T78 183T43 228T29 295Q29 336 51 367T109 411Q64 440 47 474T29 546Q29 575 40 599T70 640T117 667T175 677Q231 677 264 661T323 618L278 550Q255 575 233 585T187 596Q162 596 148 583T134 547Q134 526 148 512T184 485T230 459T277 427T312 381T327 314ZM228 288Q228 323 213 343T180 375Q149 368 139 350T128 314Q128 288 141 268T189 227Q209 238 218 254T228 288Z"  />
<glyph unicode="&#xA8;" horiz-adv-x="277" d="M282 609Q282 583 264 565T220 547Q194 547 176 565T158 609Q158 635 176 653T220 671Q246 671 264 653T282 609ZM119 609Q119 583 101 565T57 547Q32 547 14 565T-4 609Q-4 635 14 653T57 671Q83 671 101 653T119 609Z"  />
<glyph unicode="&#xA9;" horiz-adv-x="778" d="M734 334Q734 263 707 200T633 90T523 16T389 -11Q318 -11 255 16T145 90T71 200T44 334Q44 405 71 468T145 578T255 652T389 679Q460 679 523 652T633 578T707 468T734 334ZM699 334Q699 398 675 454T608 553T510 619T389 644Q325 644 269 620T170 553T104 455T79 334Q79 270 103 214T170 115T268 49T389 24Q453 24 509 48T608 115T674 213T699 334ZM542 190Q515 158 478 140T394 122Q350 122 312 138T246 182T202 250T185 335Q185 381 201 419T246 486T312 530T394 546Q441 546 478 529T541 480L511 451Q491 477 460 492T394 508Q361 508 331 496T279 460T243 406T229 335Q229 297 242 265T278 210T331 173T394 160Q430 160 461 176T512 219L542 190Z"  />
<glyph unicode="&#xAA;" horiz-adv-x="301" d="M181 326V357Q171 341 153 330T109 318Q72 318 46 344T19 421Q19 471 45 497T109 524Q135 524 153 514T181 487V527Q181 556 168 570T130 585Q114 585 97 576T63 549L32 604Q55 628 88 638T148 648Q201 648 232 621T264 534V326H181ZM140 373Q153 373 163 379T181 401V445Q174 462 164 468T140 475Q121 475 111 461T101 424Q101 401 111 387T140 373Z"  />
<glyph unicode="&#xAB;" horiz-adv-x="385" d="M267 63L177 243L267 420H355L265 243L355 63H267ZM120 63L30 243L120 420H208L118 243L208 63H120Z"  />
<glyph unicode="&#xAC;" horiz-adv-x="383" d="M354 203H280V393H29V465H354V203Z"  />
<glyph unicode="&#xAD;" horiz-adv-x="241" d="M30 194V290H211V194H30Z"  />
<glyph unicode="&#xAE;" horiz-adv-x="494" d="M459 465Q459 421 443 383T398 315T330 270T247 253Q203 253 165 269T97 315T52 382T35 465Q35 509 51 548T97 615T164 660T247 677Q291 677 330 661T397 616T442 548T459 465ZM428 465Q428 503 414 536T375 593T317 632T247 646Q209 646 177 632T119 594T80 536T66 465Q66 428 80 395T119 338T176 299T247 284Q284 284 317 298T375 337T414 395T428 465ZM305 343L242 439H199V343H166V586H265Q296 586 319 566T343 512Q343 492 336 478T318 456T297 444T281 440L346 343H305ZM309 512Q309 532 295 544T265 557H199V469H265Q281 469 295 481T309 512Z"  />
<glyph unicode="&#xAF;" horiz-adv-x="258" d="M0 591V657H258V591H0Z"  />
<glyph unicode="&#xB0;" horiz-adv-x="305" d="M284 545Q284 518 274 494T245 452T203 424T152 414Q125 414 101 424T59 452T31 494T21 545Q21 572 31 596T59 638T101 666T152 677Q179 677 203 667T245 638T273 596T284 545ZM221 545Q221 573 201 593T152 614Q124 614 105 594T85 545Q85 517 104 498T152 478Q180 478 200 497T221 545Z"  />
<glyph unicode="&#xB1;" horiz-adv-x="383" d="M231 302V156H152V302H29V373H152V512H231V373H354V302H231ZM29 27V98H354V27H29Z"  />
<glyph unicode="&#xB2;" horiz-adv-x="293" d="M28 421V484Q80 540 111 576T160 636T183 676T189 708Q189 731 176 744T141 758Q97 758 69 710L17 761Q40 793 72 810T146 827Q203 827 238 797T274 711Q274 690 267 669T244 623T201 565T135 490H276V421H28Z"  />
<glyph unicode="&#xB3;" horiz-adv-x="293" d="M276 531Q276 478 241 446T145 414Q100 414 67 432T15 479L69 530Q82 509 100 496T141 483Q168 483 180 498T192 537Q192 569 174 580T136 591Q128 591 121 591T108 590V659Q112 658 120 658T133 658Q158 658 172 670T187 707Q187 733 175 745T140 758Q120 758 102 747T72 716L19 762Q41 794 73 810T145 827Q201 827 235 801T270 719Q270 686 250 660T200 627Q232 622 254 596T276 531Z"  />
<glyph unicode="&#xB4;" horiz-adv-x="178" d="M71 556H0L79 700H178L71 556Z"  />
<glyph unicode="&#xB5;" horiz-adv-x="420" d="M46 -184V483H158V138Q158 87 196 87Q218 87 235 106T261 149V483H374V0H261V61Q247 34 219 13T158 -12V-184H46Z"  />
<glyph unicode="&#xB6;" horiz-adv-x="449" d="M338 -100V609H257V-100H199V323Q163 323 132 336T78 373T41 428T27 495Q27 531 40 562T77 616T132 653T199 667H396V-100H338Z"  />
<glyph unicode="&#xB7;" horiz-adv-x="248" d="M198 244Q198 214 177 193T124 171Q94 171 72 192T50 244Q50 275 72 296T124 318Q155 318 176 297T198 244Z"  />
<glyph unicode="&#xB8;" horiz-adv-x="182" d="M86 -194Q60 -194 38 -185T0 -163L22 -117Q37 -130 52 -137T83 -145Q100 -145 112 -136T124 -109Q124 -97 118 -90T101 -82Q92 -82 86 -85T75 -95L33 -71L64 11H121L95 -52Q108 -43 124 -43Q148 -43 165 -61T182 -111Q182 -149 155 -171T86 -194Z"  />
<glyph unicode="&#xB9;" horiz-adv-x="244" d="M114 421V711L58 653L9 704L126 821H201V421H114Z"  />
<glyph unicode="&#xBA;" horiz-adv-x="308" d="M154 318Q121 318 97 331T56 368T32 420T24 483Q24 516 32 546T56 598T96 634T154 648Q187 648 211 635T252 599T276 546T284 483Q284 450 276 421T252 368T212 332T154 318ZM154 385Q181 385 190 413T199 483Q199 525 190 552T154 580Q128 580 119 553T109 483Q109 441 118 413T154 385Z"  />
<glyph unicode="&#xBB;" horiz-adv-x="385" d="M118 63H30L120 243L30 420H118L208 243L118 63ZM265 63H177L267 243L177 420H265L355 243L265 63Z"  />
<glyph unicode="&#xBC;" horiz-adv-x="648" d="M209 0H159L437 667H488L209 0ZM602 90V0H516V90H368V157L498 400H602V158H636V90H602ZM516 306L441 158H516V306ZM114 267V557L58 499L9 550L126 667H201V267H114Z"  />
<glyph unicode="&#xBD;" horiz-adv-x="683" d="M209 0H159L437 667H488L209 0ZM418 0V63Q470 119 501 155T550 215T573 255T579 287Q579 310 566 323T531 337Q487 337 459 289L407 340Q430 372 462 389T536 406Q593 406 628 376T664 290Q664 269 657 248T634 202T591 144T525 69H666V0H418ZM114 267V557L58 499L9 550L126 667H201V267H114Z"  />
<glyph unicode="&#xBE;" horiz-adv-x="684" d="M245 0H195L473 667H524L245 0ZM638 90V0H552V90H404V157L534 400H638V158H672V90H638ZM552 306L477 158H552V306ZM276 377Q276 324 241 292T145 260Q100 260 67 278T15 325L69 376Q82 355 100 342T141 329Q168 329 180 344T192 383Q192 415 174 426T136 437Q128 437 121 437T108 436V505Q112 504 120 504T133 504Q158 504 172 516T187 553Q187 579 175 591T140 604Q120 604 102 593T72 562L19 608Q41 640 73 656T145 673Q201 673 235 647T270 565Q270 532 250 506T200 473Q232 468 254 442T276 377Z"  />
<glyph unicode="&#xBF;" horiz-adv-x="287" d="M206 282Q231 250 231 195Q231 154 217 126T185 75T154 28T139 -26Q139 -49 153 -68T193 -87Q225 -87 248 -57L300 -135Q243 -196 163 -196Q129 -196 102 -185T55 -155T26 -109T15 -52Q15 -7 32 25T71 85T109 140T127 201Q127 214 123 226T112 247L206 282ZM160 494Q190 494 212 472T234 420Q234 390 212 368T160 346Q130 346 108 368T86 420Q86 450 108 472T160 494Z"  />
<glyph unicode="&#xC0;" horiz-adv-x="424" d="M205 728L99 872H197L277 728H205ZM294 0L274 123H149L129 0H0L139 667H284L423 0H294ZM212 526L164 234H259L212 526Z"  />
<glyph unicode="&#xC1;" horiz-adv-x="424" d="M220 728H149L228 872H327L220 728ZM294 0L274 123H149L129 0H0L139 667H284L423 0H294ZM212 526L164 234H259L212 526Z"  />
<glyph unicode="&#xC2;" horiz-adv-x="424" d="M265 728L212 820L161 728H98L160 872H263L328 728H265ZM294 0L274 123H149L129 0H0L139 667H284L423 0H294ZM212 526L164 234H259L212 526Z"  />
<glyph unicode="&#xC3;" horiz-adv-x="424" d="M256 726Q236 726 225 737T206 763T191 788T173 800Q160 800 152 784T144 732H85Q85 791 106 828T170 866Q190 866 201 855T220 829T235 804T253 792Q282 792 282 860H341Q341 802 320 764T256 726ZM294 0L274 123H149L129 0H0L139 667H284L423 0H294ZM212 526L164 234H259L212 526Z"  />
<glyph unicode="&#xC4;" horiz-adv-x="424" d="M355 781Q355 755 337 737T293 719Q267 719 249 737T231 781Q231 807 249 825T293 843Q319 843 337 825T355 781ZM192 781Q192 755 174 737T130 719Q105 719 87 737T69 781Q69 807 87 825T130 843Q156 843 174 825T192 781ZM294 0L274 123H149L129 0H0L139 667H284L423 0H294ZM212 526L164 234H259L212 526Z"  />
<glyph unicode="&#xC5;" horiz-adv-x="424" d="M213 693Q176 693 150 718T124 782Q124 819 150 844T213 870Q250 870 275 845T301 782Q301 744 276 719T213 693ZM213 742Q230 742 241 753T252 782Q252 798 241 809T213 821Q196 821 185 810T174 782Q174 765 185 754T213 742ZM294 0L274 123H149L129 0H0L139 667H284L423 0H294ZM212 526L164 234H259L212 526Z"  />
<glyph unicode="&#xC6;" horiz-adv-x="606" d="M284 0V123H170L133 0H5L230 667H576V556H410V395H569V284H410V111H576V0H284ZM284 526L200 234H284V526Z"  />
<glyph unicode="&#xC7;" horiz-adv-x="429" d="M235 -190Q209 -190 187 -181T149 -159L171 -113Q186 -126 201 -133T232 -141Q249 -141 261 -132T273 -105Q273 -93 267 -86T250 -78Q241 -78 235 -81T224 -91L182 -67L204 -9Q159 -1 126 28T72 102T40 206T30 333Q30 408 42 471T79 580T144 652T239 678Q280 678 308 664T356 626T387 576T407 521L306 484Q296 522 282 544T239 566Q217 566 202 549T177 501T163 427T159 333Q159 282 163 239T176 166T201 118T239 100Q271 100 286 127T308 197L408 160Q402 133 392 105T364 52T321 11T259 -11L244 -48Q257 -39 273 -39Q297 -39 314 -57T331 -107Q331 -145 304 -167T235 -190Z"  />
<glyph unicode="&#xC8;" horiz-adv-x="379" d="M193 728L87 872H185L265 728H193ZM52 0V667H344V556H178V395H337V284H178V111H344V0H52Z"  />
<glyph unicode="&#xC9;" horiz-adv-x="379" d="M209 728H138L217 872H316L209 728ZM52 0V667H344V556H178V395H337V284H178V111H344V0H52Z"  />
<glyph unicode="&#xCA;" horiz-adv-x="379" d="M251 728L198 820L147 728H84L146 872H249L314 728H251ZM52 0V667H344V556H178V395H337V284H178V111H344V0H52Z"  />
<glyph unicode="&#xCB;" horiz-adv-x="379" d="M343 781Q343 755 325 737T281 719Q255 719 237 737T219 781Q219 807 237 825T281 843Q307 843 325 825T343 781ZM180 781Q180 755 162 737T118 719Q93 719 75 737T57 781Q57 807 75 825T118 843Q144 843 162 825T180 781ZM52 0V667H344V556H178V395H337V284H178V111H344V0H52Z"  />
<glyph unicode="&#xCC;" horiz-adv-x="230" d="M107 728L1 872H99L179 728H107ZM52 0V667H178V0H52Z"  />
<glyph unicode="&#xCD;" horiz-adv-x="230" d="M124 728H53L132 872H231L124 728ZM52 0V667H178V0H52Z"  />
<glyph unicode="&#xCE;" horiz-adv-x="230" d="M167 728L114 820L63 728H0L62 872H165L230 728H167ZM52 0V667H178V0H52Z"  />
<glyph unicode="&#xCF;" horiz-adv-x="230" d="M260 781Q260 755 242 737T198 719Q172 719 154 737T136 781Q136 807 154 825T198 843Q224 843 242 825T260 781ZM97 781Q97 755 79 737T35 719Q10 719 -8 737T-26 781Q-26 807 -8 825T35 843Q61 843 79 825T97 781ZM52 0V667H178V0H52Z"  />
<glyph unicode="&#xD0;" horiz-adv-x="498" d="M75 0V283H16V376H75V667H241Q301 667 344 642T414 571T455 465T468 333Q468 261 456 200T416 95T345 25T242 0H75ZM201 283V111H242Q291 111 315 168T339 333Q339 556 242 556H201V376H269V283H201Z"  />
<glyph unicode="&#xD1;" horiz-adv-x="484" d="M284 726Q264 726 253 737T234 763T219 788T201 800Q188 800 180 784T172 732H113Q113 791 134 828T198 866Q218 866 229 855T248 829T263 804T281 792Q310 792 310 860H369Q369 802 348 764T284 726ZM314 0L178 382V0H52V667H178L306 298V667H432V0H314Z"  />
<glyph unicode="&#xD2;" horiz-adv-x="478" d="M231 728L125 872H223L303 728H231ZM239 -12Q184 -12 145 14T80 87T42 196T30 333Q30 406 42 469T79 579T144 651T239 678Q294 678 333 652T397 579T435 470T447 333Q447 259 435 196T398 87T333 15T239 -12ZM239 100Q261 100 276 118T300 167T314 241T318 333Q318 383 314 425T301 499T276 548T239 566Q216 566 201 549T177 500T163 426T159 333Q159 284 163 242T176 168T201 118T239 100Z"  />
<glyph unicode="&#xD3;" horiz-adv-x="478" d="M247 728H176L255 872H354L247 728ZM239 -12Q184 -12 145 14T80 87T42 196T30 333Q30 406 42 469T79 579T144 651T239 678Q294 678 333 652T397 579T435 470T447 333Q447 259 435 196T398 87T333 15T239 -12ZM239 100Q261 100 276 118T300 167T314 241T318 333Q318 383 314 425T301 499T276 548T239 566Q216 566 201 549T177 500T163 426T159 333Q159 284 163 242T176 168T201 118T239 100Z"  />
<glyph unicode="&#xD4;" horiz-adv-x="478" d="M292 728L239 820L188 728H125L187 872H290L355 728H292ZM239 -12Q184 -12 145 14T80 87T42 196T30 333Q30 406 42 469T79 579T144 651T239 678Q294 678 333 652T397 579T435 470T447 333Q447 259 435 196T398 87T333 15T239 -12ZM239 100Q261 100 276 118T300 167T314 241T318 333Q318 383 314 425T301 499T276 548T239 566Q216 566 201 549T177 500T163 426T159 333Q159 284 163 242T176 168T201 118T239 100Z"  />
<glyph unicode="&#xD5;" horiz-adv-x="478" d="M283 726Q263 726 252 737T233 763T218 788T200 800Q187 800 179 784T171 732H112Q112 791 133 828T197 866Q217 866 228 855T247 829T262 804T280 792Q309 792 309 860H368Q368 802 347 764T283 726ZM239 -12Q184 -12 145 14T80 87T42 196T30 333Q30 406 42 469T79 579T144 651T239 678Q294 678 333 652T397 579T435 470T447 333Q447 259 435 196T398 87T333 15T239 -12ZM239 100Q261 100 276 118T300 167T314 241T318 333Q318 383 314 425T301 499T276 548T239 566Q216 566 201 549T177 500T163 426T159 333Q159 284 163 242T176 168T201 118T239 100Z"  />
<glyph unicode="&#xD6;" horiz-adv-x="478" d="M382 781Q382 755 364 737T320 719Q294 719 276 737T258 781Q258 807 276 825T320 843Q346 843 364 825T382 781ZM219 781Q219 755 201 737T157 719Q132 719 114 737T96 781Q96 807 114 825T157 843Q183 843 201 825T219 781ZM239 -12Q184 -12 145 14T80 87T42 196T30 333Q30 406 42 469T79 579T144 651T239 678Q294 678 333 652T397 579T435 470T447 333Q447 259 435 196T398 87T333 15T239 -12ZM239 100Q261 100 276 118T300 167T314 241T318 333Q318 383 314 425T301 499T276 548T239 566Q216 566 201 549T177 500T163 426T159 333Q159 284 163 242T176 168T201 118T239 100Z"  />
<glyph unicode="&#xD7;" horiz-adv-x="383" d="M191 284L91 183L40 234L141 334L40 434L91 485L191 384L292 485L343 434L242 334L343 234L292 183L191 284Z"  />
<glyph unicode="&#xD8;" horiz-adv-x="478" d="M239 -12Q174 -12 128 26L116 0H43L82 82Q55 129 43 193T30 333Q30 406 42 469T79 579T144 651T239 678Q303 678 350 639L363 667H436L395 583Q422 536 434 472T447 333Q447 259 435 196T398 87T333 15T239 -12ZM159 333Q159 287 162 248L293 521Q283 542 270 554T239 566Q216 566 201 549T177 500T163 426T159 333ZM239 100Q261 100 276 118T300 167T314 241T318 333Q318 376 315 415L185 144Q204 100 239 100Z"  />
<glyph unicode="&#xD9;" horiz-adv-x="484" d="M235 728L129 872H227L307 728H235ZM242 -12Q205 -12 171 0T110 37T68 100T52 193V667H178V187Q178 138 195 119T242 99Q271 99 288 118T306 187V667H432V193Q432 139 416 101T374 37T314 0T242 -12Z"  />
<glyph unicode="&#xDA;" horiz-adv-x="484" d="M251 728H180L259 872H358L251 728ZM242 -12Q205 -12 171 0T110 37T68 100T52 193V667H178V187Q178 138 195 119T242 99Q271 99 288 118T306 187V667H432V193Q432 139 416 101T374 37T314 0T242 -12Z"  />
<glyph unicode="&#xDB;" horiz-adv-x="484" d="M295 728L242 820L191 728H128L190 872H293L358 728H295ZM242 -12Q205 -12 171 0T110 37T68 100T52 193V667H178V187Q178 138 195 119T242 99Q271 99 288 118T306 187V667H432V193Q432 139 416 101T374 37T314 0T242 -12Z"  />
<glyph unicode="&#xDC;" horiz-adv-x="484" d="M385 781Q385 755 367 737T323 719Q297 719 279 737T261 781Q261 807 279 825T323 843Q349 843 367 825T385 781ZM222 781Q222 755 204 737T160 719Q135 719 117 737T99 781Q99 807 117 825T160 843Q186 843 204 825T222 781ZM242 -12Q205 -12 171 0T110 37T68 100T52 193V667H178V187Q178 138 195 119T242 99Q271 99 288 118T306 187V667H432V193Q432 139 416 101T374 37T314 0T242 -12Z"  />
<glyph unicode="&#xDD;" horiz-adv-x="430" d="M225 728H154L233 872H332L225 728ZM152 0V276L-4 667H130L215 398L301 667H434L278 276V0H152Z"  />
<glyph unicode="&#xDE;" horiz-adv-x="441" d="M52 0V667H178V556H232Q280 556 315 539T374 493T409 425T420 345Q420 303 409 265T375 198T316 152T232 135H178V0H52ZM218 245Q254 245 272 272T291 345Q291 390 273 418T218 446H178V245H218Z"  />
<glyph unicode="&#xDF;" horiz-adv-x="516" d="M503 132Q503 104 492 78T462 32T414 0T352 -12Q301 -12 267 4T205 51L245 130Q258 114 279 96T330 78Q353 78 368 92T384 130Q384 150 372 164T341 190T300 215T260 246T229 289T216 351Q216 386 230 408T262 447T294 480T309 521Q309 544 290 560T240 577Q208 577 186 557T164 490V0H52V490Q52 529 65 563T102 622T161 662T240 677Q277 677 310 666T368 636T407 590T422 533Q422 493 407 469T374 427T341 395T326 360Q326 342 339 330T372 306T414 282T457 250T490 202T503 132Z"  />
<glyph unicode="&#xE0;" horiz-adv-x="423" d="M203 556L97 700H195L275 556H203ZM264 0V60Q248 24 222 6T170 -12Q99 -12 63 56T27 242Q27 299 36 345T63 425T107 476T170 495Q196 495 222 478T264 423V483H377V0H264ZM207 88Q225 88 240 105T264 146V337Q256 360 241 377T207 395Q188 395 176 383T157 351T146 302T143 242Q143 210 146 182T156 133T176 100T207 88Z"  />
<glyph unicode="&#xE1;" horiz-adv-x="423" d="M219 556H148L227 700H326L219 556ZM264 0V60Q248 24 222 6T170 -12Q99 -12 63 56T27 242Q27 299 36 345T63 425T107 476T170 495Q196 495 222 478T264 423V483H377V0H264ZM207 88Q225 88 240 105T264 146V337Q256 360 241 377T207 395Q188 395 176 383T157 351T146 302T143 242Q143 210 146 182T156 133T176 100T207 88Z"  />
<glyph unicode="&#xE2;" horiz-adv-x="423" d="M265 556L212 648L161 556H98L160 700H263L328 556H265ZM264 0V60Q248 24 222 6T170 -12Q99 -12 63 56T27 242Q27 299 36 345T63 425T107 476T170 495Q196 495 222 478T264 423V483H377V0H264ZM207 88Q225 88 240 105T264 146V337Q256 360 241 377T207 395Q188 395 176 383T157 351T146 302T143 242Q143 210 146 182T156 133T176 100T207 88Z"  />
<glyph unicode="&#xE3;" horiz-adv-x="423" d="M255 554Q235 554 224 565T205 591T190 616T172 628Q159 628 151 612T143 560H84Q84 619 105 656T169 694Q189 694 200 683T219 657T234 632T252 620Q281 620 281 688H340Q340 630 319 592T255 554ZM264 0V60Q248 24 222 6T170 -12Q99 -12 63 56T27 242Q27 299 36 345T63 425T107 476T170 495Q196 495 222 478T264 423V483H377V0H264ZM207 88Q225 88 240 105T264 146V337Q256 360 241 377T207 395Q188 395 176 383T157 351T146 302T143 242Q143 210 146 182T156 133T176 100T207 88Z"  />
<glyph unicode="&#xE4;" horiz-adv-x="423" d="M355 609Q355 583 337 565T293 547Q267 547 249 565T231 609Q231 635 249 653T293 671Q319 671 337 653T355 609ZM192 609Q192 583 174 565T130 547Q105 547 87 565T69 609Q69 635 87 653T130 671Q156 671 174 653T192 609ZM264 0V60Q248 24 222 6T170 -12Q99 -12 63 56T27 242Q27 299 36 345T63 425T107 476T170 495Q196 495 222 478T264 423V483H377V0H264ZM207 88Q225 88 240 105T264 146V337Q256 360 241 377T207 395Q188 395 176 383T157 351T146 302T143 242Q143 210 146 182T156 133T176 100T207 88Z"  />
<glyph unicode="&#xE5;" horiz-adv-x="423" d="M213 550Q176 550 150 575T124 639Q124 676 150 701T213 727Q250 727 275 702T301 639Q301 601 276 576T213 550ZM213 599Q230 599 241 610T252 639Q252 655 241 666T213 678Q196 678 185 667T174 639Q174 622 185 611T213 599ZM264 0V60Q248 24 222 6T170 -12Q99 -12 63 56T27 242Q27 299 36 345T63 425T107 476T170 495Q196 495 222 478T264 423V483H377V0H264ZM207 88Q225 88 240 105T264 146V337Q256 360 241 377T207 395Q188 395 176 383T157 351T146 302T143 242Q143 210 146 182T156 133T176 100T207 88Z"  />
<glyph unicode="&#xE6;" horiz-adv-x="645" d="M264 0V60Q248 24 222 6T170 -12Q99 -12 63 56T27 242Q27 299 36 345T63 425T107 476T170 495Q196 495 222 478T264 423V483H377V425Q389 457 412 476T473 495Q513 495 541 476T587 423T613 343T622 244V204H377Q378 150 400 116T471 82Q492 82 513 94T551 130L606 59Q560 -12 490 -12Q445 -12 418 8T377 68V0H264ZM207 88Q225 88 240 105T264 146V337Q256 360 241 377T207 395Q188 395 176 383T157 351T146 302T143 242Q143 210 146 182T156 133T176 100T207 88ZM513 284Q513 304 510 325T500 363T479 392T445 403Q426 403 414 393T393 368T382 333T377 295V284H513Z"  />
<glyph unicode="&#xE7;" horiz-adv-x="344" d="M210 -192Q184 -192 162 -183T124 -161L146 -115Q161 -128 176 -135T207 -143Q224 -143 236 -134T248 -107Q248 -95 242 -88T225 -80Q216 -80 210 -83T199 -93L157 -69L179 -9Q143 -3 115 18T67 73T37 149T27 242Q27 297 39 343T75 423T133 476T211 495Q251 495 281 482T328 452L291 364Q263 395 232 395Q209 395 193 383T165 350T149 301T143 242Q143 210 148 182T165 133T192 100T232 88Q264 88 291 119L328 31Q313 15 290 4T235 -11L219 -50Q232 -41 248 -41Q272 -41 289 -59T306 -109Q306 -147 279 -169T210 -192Z"  />
<glyph unicode="&#xE8;" horiz-adv-x="404" d="M219 -12Q172 -12 136 6T76 59T40 139T27 242Q27 294 38 340T72 421T129 475T208 495Q254 495 286 476T340 423T371 343T381 244V204H136Q137 150 159 115T231 80Q251 80 272 92T311 128L366 65Q337 27 299 8T219 -12ZM273 284Q273 304 270 325T260 363T239 392T205 403Q184 403 171 392T150 363T139 324T136 284H273ZM201 556L95 700H193L273 556H201Z"  />
<glyph unicode="&#xE9;" horiz-adv-x="404" d="M219 -12Q172 -12 136 6T76 59T40 139T27 242Q27 294 38 340T72 421T129 475T208 495Q254 495 286 476T340 423T371 343T381 244V204H136Q137 150 159 115T231 80Q251 80 272 92T311 128L366 65Q337 27 299 8T219 -12ZM273 284Q273 304 270 325T260 363T239 392T205 403Q184 403 171 392T150 363T139 324T136 284H273ZM218 556H147L226 700H325L218 556Z"  />
<glyph unicode="&#xEA;" horiz-adv-x="404" d="M219 -12Q172 -12 136 6T76 59T40 139T27 242Q27 294 38 340T72 421T129 475T208 495Q254 495 286 476T340 423T371 343T381 244V204H136Q137 150 159 115T231 80Q251 80 272 92T311 128L366 65Q337 27 299 8T219 -12ZM273 284Q273 304 270 325T260 363T239 392T205 403Q184 403 171 392T150 363T139 324T136 284H273ZM258 556L205 648L154 556H91L153 700H256L321 556H258Z"  />
<glyph unicode="&#xEB;" horiz-adv-x="404" d="M219 -12Q172 -12 136 6T76 59T40 139T27 242Q27 294 38 340T72 421T129 475T208 495Q254 495 286 476T340 423T371 343T381 244V204H136Q137 150 159 115T231 80Q251 80 272 92T311 128L366 65Q337 27 299 8T219 -12ZM273 284Q273 304 270 325T260 363T239 392T205 403Q184 403 171 392T150 363T139 324T136 284H273ZM348 609Q348 583 330 565T286 547Q260 547 242 565T224 609Q224 635 242 653T286 671Q312 671 330 653T348 609ZM185 609Q185 583 167 565T123 547Q98 547 80 565T62 609Q62 635 80 653T123 671Q149 671 167 653T185 609Z"  />
<glyph unicode="&#xEC;" horiz-adv-x="204" d="M94 556L-12 700H86L166 556H94ZM46 0V483H158V0H46Z"  />
<glyph unicode="&#xED;" horiz-adv-x="204" d="M110 556H39L118 700H217L110 556ZM46 0V483H158V0H46Z"  />
<glyph unicode="&#xEE;" horiz-adv-x="204" d="M155 556L102 648L51 556H-12L50 700H153L218 556H155ZM46 0V483H158V0H46Z"  />
<glyph unicode="&#xEF;" horiz-adv-x="204" d="M245 609Q245 583 227 565T183 547Q157 547 139 565T121 609Q121 635 139 653T183 671Q209 671 227 653T245 609ZM82 609Q82 583 64 565T20 547Q-5 547 -23 565T-41 609Q-41 635 -23 653T20 671Q46 671 64 653T82 609ZM46 0V483H158V0H46Z"  />
<glyph unicode="&#xF0;" horiz-adv-x="417" d="M111 552L205 593Q197 610 189 626T171 656L271 702Q280 686 289 670T306 637L370 665L393 613L329 584Q358 511 374 432T390 270Q390 207 380 155T347 66T290 9T208 -12Q161 -12 127 8T70 61T38 137T27 228Q27 275 36 318T64 394T110 446T176 466Q215 466 236 445T269 397Q263 430 253 467T228 539L136 498L111 552ZM208 88Q227 88 239 99T259 130T270 174T273 227Q273 254 270 279T260 324T240 354T208 366Q190 366 178 355T158 324T147 280T143 227Q143 200 146 175T157 130T177 100T208 88Z"  />
<glyph unicode="&#xF1;" horiz-adv-x="420" d="M261 0V344Q261 395 224 395Q202 395 185 375T158 332V0H46V483H158V420Q165 435 177 448T205 472T238 489T273 495Q327 495 350 466T374 385V0H261ZM254 554Q234 554 223 565T204 591T189 616T171 628Q158 628 150 612T142 560H83Q83 619 104 656T168 694Q188 694 199 683T218 657T233 632T251 620Q280 620 280 688H339Q339 630 318 592T254 554Z"  />
<glyph unicode="&#xF2;" horiz-adv-x="417" d="M208 -12Q161 -12 127 9T70 65T38 146T27 242Q27 292 37 338T70 419T126 474T208 495Q256 495 290 475T346 419T379 338T390 242Q390 192 380 146T347 65T290 9T208 -12ZM208 88Q227 88 240 100T260 134T270 183T273 242Q273 273 270 300T260 349T240 382T208 395Q189 395 177 383T157 349T146 301T143 242Q143 211 146 183T156 134T176 101T208 88ZM201 556L95 700H193L273 556H201Z"  />
<glyph unicode="&#xF3;" horiz-adv-x="417" d="M208 -12Q161 -12 127 9T70 65T38 146T27 242Q27 292 37 338T70 419T126 474T208 495Q256 495 290 475T346 419T379 338T390 242Q390 192 380 146T347 65T290 9T208 -12ZM208 88Q227 88 240 100T260 134T270 183T273 242Q273 273 270 300T260 349T240 382T208 395Q189 395 177 383T157 349T146 301T143 242Q143 211 146 183T156 134T176 101T208 88ZM217 556H146L225 700H324L217 556Z"  />
<glyph unicode="&#xF4;" horiz-adv-x="417" d="M208 -12Q161 -12 127 9T70 65T38 146T27 242Q27 292 37 338T70 419T126 474T208 495Q256 495 290 475T346 419T379 338T390 242Q390 192 380 146T347 65T290 9T208 -12ZM208 88Q227 88 240 100T260 134T270 183T273 242Q273 273 270 300T260 349T240 382T208 395Q189 395 177 383T157 349T146 301T143 242Q143 211 146 183T156 134T176 101T208 88ZM261 556L208 648L157 556H94L156 700H259L324 556H261Z"  />
<glyph unicode="&#xF5;" horiz-adv-x="417" d="M208 -12Q161 -12 127 9T70 65T38 146T27 242Q27 292 37 338T70 419T126 474T208 495Q256 495 290 475T346 419T379 338T390 242Q390 192 380 146T347 65T290 9T208 -12ZM208 88Q227 88 240 100T260 134T270 183T273 242Q273 273 270 300T260 349T240 382T208 395Q189 395 177 383T157 349T146 301T143 242Q143 211 146 183T156 134T176 101T208 88ZM251 554Q231 554 220 565T201 591T186 616T168 628Q155 628 147 612T139 560H80Q80 619 101 656T165 694Q185 694 196 683T215 657T230 632T248 620Q277 620 277 688H336Q336 630 315 592T251 554Z"  />
<glyph unicode="&#xF6;" horiz-adv-x="417" d="M208 -12Q161 -12 127 9T70 65T38 146T27 242Q27 292 37 338T70 419T126 474T208 495Q256 495 290 475T346 419T379 338T390 242Q390 192 380 146T347 65T290 9T208 -12ZM208 88Q227 88 240 100T260 134T270 183T273 242Q273 273 270 300T260 349T240 382T208 395Q189 395 177 383T157 349T146 301T143 242Q143 211 146 183T156 134T176 101T208 88ZM352 609Q352 583 334 565T290 547Q264 547 246 565T228 609Q228 635 246 653T290 671Q316 671 334 653T352 609ZM189 609Q189 583 171 565T127 547Q102 547 84 565T66 609Q66 635 84 653T127 671Q153 671 171 653T189 609Z"  />
<glyph unicode="&#xF7;" horiz-adv-x="374" d="M245 482Q245 458 228 441T188 424Q165 424 148 441T131 482Q131 505 148 521T188 538Q211 538 228 522T245 482ZM29 302V373H345V302H29ZM245 191Q245 168 228 151T188 134Q165 134 148 151T131 191Q131 214 148 231T188 248Q211 248 228 231T245 191Z"  />
<glyph unicode="&#xF8;" horiz-adv-x="417" d="M34 0L71 63Q48 98 38 144T27 242Q27 292 37 338T70 419T126 474T208 495Q266 495 308 462L320 483H383L345 420Q368 385 379 339T390 242Q390 192 380 146T347 65T290 9T208 -12Q178 -12 154 -4T109 20L97 0H34ZM143 242Q143 228 143 215T145 188L252 368Q236 395 208 395Q189 395 177 383T157 349T146 301T143 242ZM208 88Q227 88 240 100T260 134T270 183T273 242Q273 269 270 293L165 115Q181 88 208 88Z"  />
<glyph unicode="&#xF9;" horiz-adv-x="420" d="M261 0V61Q254 46 242 33T215 10T182 -6T147 -12Q93 -12 70 16T46 97V483H158V138Q158 88 196 88Q218 88 235 107T261 149V483H374V0H261ZM202 556L96 700H194L274 556H202Z"  />
<glyph unicode="&#xFA;" horiz-adv-x="420" d="M261 0V61Q254 46 242 33T215 10T182 -6T147 -12Q93 -12 70 16T46 97V483H158V138Q158 88 196 88Q218 88 235 107T261 149V483H374V0H261ZM218 556H147L226 700H325L218 556Z"  />
<glyph unicode="&#xFB;" horiz-adv-x="420" d="M261 0V61Q254 46 242 33T215 10T182 -6T147 -12Q93 -12 70 16T46 97V483H158V138Q158 88 196 88Q218 88 235 107T261 149V483H374V0H261ZM263 556L210 648L159 556H96L158 700H261L326 556H263Z"  />
<glyph unicode="&#xFC;" horiz-adv-x="420" d="M261 0V61Q254 46 242 33T215 10T182 -6T147 -12Q93 -12 70 16T46 97V483H158V138Q158 88 196 88Q218 88 235 107T261 149V483H374V0H261ZM354 609Q354 583 336 565T292 547Q266 547 248 565T230 609Q230 635 248 653T292 671Q318 671 336 653T354 609ZM191 609Q191 583 173 565T129 547Q104 547 86 565T68 609Q68 635 86 653T129 671Q155 671 173 653T191 609Z"  />
<glyph unicode="&#xFD;" horiz-adv-x="420" d="M218 556H147L226 700H325L218 556ZM196 -196Q148 -196 110 -183T47 -143L86 -53Q107 -76 133 -87T184 -98Q261 -98 261 9V77Q254 63 242 50T215 27T182 11T147 5Q93 5 70 33T46 113V483H158V154Q158 104 196 104Q218 104 235 123T261 166V483H374V9Q374 -88 330 -142T196 -196Z"  />
<glyph unicode="&#xFE;" horiz-adv-x="423" d="M253 -12Q227 -12 200 4T158 58V-184H46V667H158V426Q175 462 200 478T253 495Q324 495 360 427T396 241Q396 184 387 138T360 58T316 7T253 -12ZM216 88Q235 88 247 100T266 132T277 181T280 241Q280 273 277 301T267 350T247 383T216 395Q198 395 182 379T158 339V146Q166 121 182 105T216 88Z"  />
<glyph unicode="&#xFF;" horiz-adv-x="420" d="M353 609Q353 583 335 565T291 547Q265 547 247 565T229 609Q229 635 247 653T291 671Q317 671 335 653T353 609ZM190 609Q190 583 172 565T128 547Q103 547 85 565T67 609Q67 635 85 653T128 671Q154 671 172 653T190 609ZM196 -196Q148 -196 110 -183T47 -143L86 -53Q107 -76 133 -87T184 -98Q261 -98 261 9V77Q254 63 242 50T215 27T182 11T147 5Q93 5 70 33T46 113V483H158V154Q158 104 196 104Q218 104 235 123T261 166V483H374V9Q374 -88 330 -142T196 -196Z"  />
<glyph unicode="&#x152;" horiz-adv-x="632" d="M310 0V50Q293 15 265 2T213 -12Q165 -12 130 14T73 87T41 196T30 333Q30 406 40 469T73 578T130 651T213 677Q237 677 265 664T310 617V667H602V556H436V395H595V284H436V111H602V0H310ZM310 476Q300 521 281 543T239 565Q216 565 201 548T176 499T163 426T159 333Q159 283 163 241T176 167T200 118T239 100Q262 100 281 123T310 191V476Z"  />
<glyph unicode="&#x153;" horiz-adv-x="650" d="M383 204Q384 150 406 115T477 80Q498 80 519 92T557 128L612 65Q584 27 546 8T465 -12Q415 -12 384 11T333 77Q313 34 283 11T208 -12Q161 -12 127 9T70 65T38 146T27 242Q27 292 37 338T70 419T126 474T208 495Q252 495 282 473T332 409Q373 495 455 495Q501 495 533 476T587 422T618 342T628 242V204H383ZM519 284Q519 304 516 325T506 363T485 392T451 403Q430 403 417 392T397 363T386 324T383 284H519ZM273 242Q273 273 270 300T260 349T240 382T208 395Q189 395 177 383T157 349T146 301T143 242Q143 211 146 183T156 134T176 100T208 87Q227 87 240 99T260 133T270 183T273 242Z"  />
<glyph unicode="&#x160;" horiz-adv-x="389" d="M166 728L101 872H164L218 780L268 872H331L269 728H166ZM184 -12Q129 -12 87 5T12 54L66 153Q87 127 117 114T176 100Q206 100 224 120T243 173Q243 202 228 223T188 263T137 301T86 345T47 406T31 492Q31 529 43 563T79 622T137 663T216 678Q259 678 296 664T361 624L313 527Q275 566 221 566Q194 566 177 548T159 499Q159 473 174 453T214 415T265 376T316 330T355 267T371 181Q371 139 358 104T320 43T261 3T184 -12Z"  />
<glyph unicode="&#x161;" horiz-adv-x="345" d="M169 -12Q115 -12 76 5T13 51L59 129Q79 107 104 92T159 77Q186 77 202 91T219 129Q219 149 205 162T170 186T124 210T78 241T43 288T29 358Q29 386 39 410T68 454T116 484T183 495Q225 495 261 480T324 438L279 362Q265 379 240 392T186 406Q163 406 149 393T134 361Q134 343 148 331T184 307T230 283T277 251T312 203T327 132Q327 100 315 74T282 28T232 -1T169 -12ZM128 556L63 700H126L180 608L230 700H293L231 556H128Z"  />
<glyph unicode="&#x178;" horiz-adv-x="430" d="M360 781Q360 755 342 737T298 719Q272 719 254 737T236 781Q236 807 254 825T298 843Q324 843 342 825T360 781ZM197 781Q197 755 179 737T135 719Q110 719 92 737T74 781Q74 807 92 825T135 843Q161 843 179 825T197 781ZM152 0V276L-4 667H130L215 398L301 667H434L278 276V0H152Z"  />
<glyph unicode="&#x17D;" horiz-adv-x="376" d="M138 728L73 872H136L190 780L240 872H303L241 728H138ZM29 0V107L198 556H29V667H339V565L168 111H346V0H29Z"  />
<glyph unicode="&#x17E;" horiz-adv-x="335" d="M27 0V85L170 385H27V483H305V401L161 98H309V0H27ZM115 556L50 700H113L167 608L217 700H280L218 556H115Z"  />
<glyph unicode="&#x192;" horiz-adv-x="397" d="M13 -161L102 243H60V342H124L170 547Q176 577 191 601T227 642T274 668T327 677Q347 677 368 673T407 654L372 554Q361 566 342 566Q322 566 309 553T291 516L253 342H332V243H231L141 -161H13Z"  />
<glyph unicode="&#x2C6;" horiz-adv-x="230" d="M167 556L114 648L63 556H0L62 700H165L230 556H167Z"  />
<glyph unicode="&#x2DC;" horiz-adv-x="256" d="M171 554Q151 554 140 565T121 591T106 616T88 628Q75 628 67 612T59 560H0Q0 619 21 656T85 694Q105 694 116 683T135 657T150 632T168 620Q197 620 197 688H256Q256 630 235 592T171 554Z"  />
<glyph unicode="&#x2013;" horiz-adv-x="460" d="M30 194V290H430V194H30Z"  />
<glyph unicode="&#x2014;" horiz-adv-x="640" d="M30 194V290H610V194H30Z"  />
<glyph unicode="&#x2018;" horiz-adv-x="251" d="M46 502Q46 556 72 601T143 678L193 637Q181 630 169 619T147 596T129 570T119 543Q125 545 136 545Q162 545 180 527T199 479Q199 450 178 429T127 407Q95 407 71 432T46 502Z"  />
<glyph unicode="&#x2019;" horiz-adv-x="251" d="M203 581Q203 528 177 483T107 406L56 447Q68 454 80 465T102 488T120 514T130 541Q126 539 113 539Q87 539 69 557T51 605Q51 634 72 655T122 677Q154 677 178 652T203 581Z"  />
<glyph unicode="&#x201A;" horiz-adv-x="251" d="M203 41Q203 -13 177 -58T107 -134L56 -93Q68 -86 80 -76T102 -53T120 -26T130 1Q128 0 123 -1T113 -2Q87 -2 69 16T51 64Q51 94 72 115T122 137Q154 137 178 112T203 41Z"  />
<glyph unicode="&#x201C;" horiz-adv-x="442" d="M47 502Q47 556 74 601T144 678L194 637Q182 630 170 619T148 596T130 570T120 543Q126 545 138 545Q164 545 182 527T200 479Q200 450 179 429T128 407Q96 407 72 432T47 502ZM239 502Q239 556 265 601T335 678L386 637Q374 630 362 619T340 596T322 570T312 543Q316 545 329 545Q355 545 373 527T391 479Q391 450 370 429T320 407Q288 407 264 432T239 502Z"  />
<glyph unicode="&#x201D;" horiz-adv-x="442" d="M395 581Q395 528 368 483T298 406L248 447Q260 454 272 465T294 488T312 514T322 541Q316 539 304 539Q278 539 260 557T242 605Q242 634 263 655T314 677Q346 677 370 652T395 581ZM203 581Q203 528 177 483T107 406L56 447Q68 454 80 465T102 488T120 514T130 541Q126 539 113 539Q87 539 69 557T51 605Q51 634 72 655T122 677Q154 677 178 652T203 581Z"  />
<glyph unicode="&#x201E;" horiz-adv-x="442" d="M203 41Q203 -13 177 -58T107 -134L56 -93Q68 -86 80 -76T102 -53T120 -26T130 1Q128 0 123 -1T113 -2Q87 -2 69 16T51 64Q51 94 72 115T122 137Q154 137 178 112T203 41ZM395 41Q395 -13 368 -58T298 -134L248 -93Q260 -86 272 -76T294 -53T312 -26T322 1Q320 0 315 -1T304 -2Q278 -2 260 16T242 64Q242 94 263 115T314 137Q346 137 370 112T395 41Z"  />
<glyph unicode="&#x2020;" horiz-adv-x="273" d="M163 529L167 327H105L110 529L21 525V581L110 578L105 677H167L163 578L252 581V525L163 529Z"  />
<glyph unicode="&#x2021;" horiz-adv-x="273" d="M252 525L163 529V329L252 333V277L163 280L167 180H105L109 280L21 277V333L109 329V529L21 525V581L109 578L105 677H167L163 578L252 581V525Z"  />
<glyph unicode="&#x2022;" horiz-adv-x="358" d="M296 242Q296 218 287 198T262 161T225 136T180 127Q156 127 135 136T98 161T73 197T64 242Q64 266 73 287T98 324T135 349T180 358Q204 358 225 349T262 324T287 287T296 242Z"  />
<glyph unicode="&#x2026;" horiz-adv-x="745" d="M198 63Q198 33 177 11T124 -11Q94 -11 72 11T50 63Q50 93 72 115T124 137Q155 137 176 115T198 63ZM447 63Q447 33 425 11T372 -11Q342 -11 320 11T298 63Q298 93 320 115T372 137Q403 137 425 115T447 63ZM695 63Q695 33 673 11T620 -11Q590 -11 569 11T547 63Q547 93 568 115T620 137Q651 137 673 115T695 63Z"  />
<glyph unicode="&#x2030;" horiz-adv-x="867" d="M280 510Q280 475 271 445T245 393T204 358T150 345Q120 345 97 357T56 392T30 445T21 510Q21 545 30 575T56 628T96 664T150 677Q180 677 204 664T245 629T271 576T280 510ZM179 0H129L408 667H459L179 0ZM566 153Q566 118 557 88T531 36T491 1T437 -12Q407 -12 383 0T342 35T316 88T307 153Q307 188 316 218T342 271T383 307T437 320Q467 320 490 307T531 272T557 219T566 153ZM204 510Q204 554 190 580T150 606Q125 606 111 580T96 510Q96 468 110 442T150 416Q176 416 190 442T204 510ZM491 153Q491 197 477 222T437 248Q411 248 397 223T383 153Q383 111 397 85T437 59Q463 59 477 85T491 153ZM846 153Q846 118 837 88T811 36T771 1T717 -12Q687 -12 663 0T622 35T596 88T587 153Q587 188 596 218T622 271T663 307T717 320Q747 320 770 307T811 272T837 219T846 153ZM771 153Q771 197 757 222T717 248Q691 248 677 223T663 153Q663 111 677 85T717 59Q742 59 756 85T771 153Z"  />
<glyph unicode="&#x2039;" horiz-adv-x="238" d="M120 63L30 243L120 420H208L118 243L208 63H120Z"  />
<glyph unicode="&#x203A;" horiz-adv-x="238" d="M118 63H30L120 243L30 420H118L208 243L118 63Z"  />
<glyph unicode="&#x20AC;" horiz-adv-x="445" d="M256 -12Q211 -12 177 5T117 54T76 130T53 228H15V300H47V333V369H15V440H54Q61 493 77 537T118 612T177 661T256 678Q297 678 325 664T373 626T404 576T424 521L323 484Q313 522 299 544T256 566Q224 566 207 532T181 440H281V369H176V333V300H281V228H181Q189 168 206 134T256 100Q288 100 303 127T325 197L425 160Q418 131 407 101T376 46T327 4T256 -12Z"  />
<glyph unicode="&#x2122;" horiz-adv-x="374" d="M311 447V629L256 447H248L193 629V447H165V667H208L252 510L296 667H339V447H311ZM87 641V447H59V641H17V667H129V641H87Z"  />


</font>
</defs>
</svg>
